# xmcd
#
# Track frame offsets: 
#        150
#        46272
#        78127
#        101077
#        132995
#        144707
#        179820
#        229312
#        250012
#
# Disc length: 3972 seconds
#
# Revision: 1
# Processed by: cddbd v1.5.2PL0 Copyright (c) Steve Scherf et al.
# Submitted via: ExactAudioCopy v1.1
#
DISCID=7b0f8209
DTITLE=Radu Lupu - Beethoven Piano Sonatas Pathetique Moonlight and Wald
DTITLE=stein
DYEAR=1972
DGENRE=Classical
TTITLE0=Beethoven Piano Sonata No 08 Op 13 Pathetique - 1 Grave-Allegr
TTITLE0=o di molto e con brio
TTITLE1=Beethoven Piano Sonata No 08 Op 13 Pathetique - 2 Adagio canta
TTITLE1=bile
TTITLE2=Beethoven Piano Sonata No 08 Op 13 Pathetique - 3 Rondo(Allegr
TTITLE2=o)
TTITLE3=Beethoven Piano Sonata No 14 in c charp minor Op 27 No 2 Moonl
TTITLE3=ight - 1 Adagio
TTITLE4=Beethoven Piano Sonata No 14 in c charp minor Op 27 No 2 Moonl
TTITLE4=ight - 2 Allegretto
TTITLE5=Beethoven Piano Sonata No 14 in c charp minor Op 27 No 2 Moonl
TTITLE5=ight - 3 Presto agitato
TTITLE6=Beethoven Piano Sonata No 21 in C Op 53 Waldstein - 1 Allegro 
TTITLE6=con brio
TTITLE7=Beethoven Piano Sonata No 21 in C Op 53 Waldstein - 2 Introduz
TTITLE7=ione(Adagio molto)-
TTITLE8=Beethoven Piano Sonata No 21 in C Op 53 Waldstein - 3 Rondo(Al
TTITLE8=legretto moderato)-Prestissimo
EXTD=
EXTT0=
EXTT1=
EXTT2=
EXTT3=
EXTT4=
EXTT5=
EXTT6=
EXTT7=
EXTT8=
PLAYORDER=
